<svg id="visual" viewBox="0 0 900 600" width="900" height="600" xmlns="http://www.w3.org/2000/svg" xmlns:xlink="http://www.w3.org/1999/xlink" version="1.1"><rect x="0" y="0" width="900" height="600" fill="#001220"></rect><defs><linearGradient id="grad1_0" x1="33.3%" y1="0%" x2="100%" y2="100%"><stop offset="20%" stop-color="#6600ff" stop-opacity="1"></stop><stop offset="80%" stop-color="#6600ff" stop-opacity="1"></stop></linearGradient></defs><defs><linearGradient id="grad1_1" x1="33.3%" y1="0%" x2="100%" y2="100%"><stop offset="20%" stop-color="#6600ff" stop-opacity="1"></stop><stop offset="80%" stop-color="#001220" stop-opacity="1"></stop></linearGradient></defs><defs><linearGradient id="grad2_0" x1="0%" y1="0%" x2="66.7%" y2="100%"><stop offset="20%" stop-color="#6600ff" stop-opacity="1"></stop><stop offset="80%" stop-color="#6600ff" stop-opacity="1"></stop></linearGradient></defs><defs><linearGradient id="grad2_1" x1="0%" y1="0%" x2="66.7%" y2="100%"><stop offset="20%" stop-color="#001220" stop-opacity="1"></stop><stop offset="80%" stop-color="#6600ff" stop-opacity="1"></stop></linearGradient></defs><g transform="translate(900, 0)"><path d="M0 432.7C-38.8 402.3 -77.6 371.9 -115 353.8C-152.3 335.7 -188.3 329.9 -231 317.9C-273.7 306 -323 287.7 -350 254.3C-377.1 220.9 -381.8 172.2 -391.8 127.3C-401.9 82.4 -417.3 41.2 -432.7 0L0 0Z" fill="#003299"></path><path d="M0 216.3C-19.4 201.1 -38.8 185.9 -57.5 176.9C-76.2 167.9 -94.2 165 -115.5 159C-136.8 153 -161.5 143.9 -175 127.2C-188.5 110.4 -190.9 86.1 -195.9 63.7C-200.9 41.2 -208.6 20.6 -216.3 0L0 0Z" fill="#6600ff"></path></g><g transform="translate(0, 600)"><path d="M0 -432.7C41.7 -419.7 83.4 -406.8 128.9 -396.6C174.3 -386.3 223.4 -378.8 254.3 -350C285.2 -321.3 297.8 -271.4 319.6 -232.2C341.4 -193 372.4 -164.5 392.8 -127.6C413.2 -90.7 422.9 -45.4 432.7 0L0 0Z" fill="#003299"></path><path d="M0 -216.3C20.9 -209.9 41.7 -203.4 64.4 -198.3C87.1 -193.2 111.7 -189.4 127.2 -175C142.6 -160.6 148.9 -135.7 159.8 -116.1C170.7 -96.5 186.2 -82.3 196.4 -63.8C206.6 -45.4 211.5 -22.7 216.3 0L0 0Z" fill="#6600ff"></path></g></svg>